<?xml version="1.0" encoding="utf-8"?>
<!-- Generator: Adobe Illustrator 17.0.0, SVG Export Plug-In . SVG Version: 6.00 Build 0)  -->
<!DOCTYPE svg PUBLIC "-//W3C//DTD SVG 1.1//EN" "http://www.w3.org/Graphics/SVG/1.1/DTD/svg11.dtd">
<svg version="1.1" id="Capa_1" xmlns="http://www.w3.org/2000/svg" xmlns:xlink="http://www.w3.org/1999/xlink" x="0px" y="0px"
	 width="2400px" height="2000px" viewBox="0 0 2400 2000" enable-background="new 0 0 2400 2000" xml:space="preserve">
<g>
	<g>
		<path fill="#010002" d="M1866.729,1012.433c-55.997,0-105.544,26.082-138.824,66.093l-213.05-106.105
			c2.711-13.836,4.394-28.139,4.394-42.816c0-74.881-37.768-140.974-95.167-180.892l136.019-385.342
			c99.935-0.187,181.359-81.705,181.359-181.64C1741.46,81.705,1659.849,0,1559.821,0c-99.935,0-181.733,81.612-181.733,181.64
			c0,68.43,38.702,127.512,94.793,158.456l-131.813,373.282c-13.649-2.711-27.858-4.3-42.255-4.3
			c-116.388,0-211.181,91.334-218.94,205.665l-374.124,87.595c-23.184-73.572-91.334-127.606-172.478-127.606
			c-100.122,0-181.64,81.612-181.64,181.733s81.612,181.64,181.64,181.64c87.314,0,160.606-62.26,177.807-144.62l381.322-89.371
			c30.102,82.64,107.694,142.283,199.963,145.087l22.623,510.423c-56.464,30.85-95.447,90.119-95.447,158.83
			c0,99.935,81.612,181.546,181.733,181.546c99.935,0,181.546-81.612,181.546-181.546c0-97.878-78.246-177.526-175.283-181.079
			l-22.343-505.188c38.141-16.453,70.674-43.47,94.232-77.124l209.218,104.328c-2.15,11.125-3.459,22.81-3.459,34.496
			c0,100.028,81.612,181.64,181.64,181.64c100.028,0,181.64-81.612,181.64-181.64
			C2048.462,1093.952,1966.664,1012.433,1866.729,1012.433z"/>
	</g>
</g>
</svg>
